<?xml version="1.0" encoding="UTF-8"?>
<svg width="103px" height="107px" viewBox="0 0 103 107" version="1.1" xmlns="http://www.w3.org/2000/svg" xmlns:xlink="http://www.w3.org/1999/xlink">
    <title>Group 17 Copy 3</title>
    <defs>
        <polygon id="path-1" points="-2.7231588e-15 0 102.042227 0 102.042227 106.999945 -2.7231588e-15 106.999945"></polygon>
        <polygon id="path-3" points="0 0 102.042196 0 102.042196 106.999897 0 106.999897"></polygon>
    </defs>
    <g id="Page-1" stroke="none" stroke-width="1" fill="none" fill-rule="evenodd">
        <g id="Artboard" transform="translate(-158, -40)">
            <g id="Group-17-Copy-3" transform="translate(158, 40)">
                <g id="Group-3" transform="translate(0.0002, 0)">
                    <mask id="mask-2" fill="white">
                        <use xlink:href="#path-1"></use>
                    </mask>
                    <g id="Clip-2"></g>
                    <path d="M16.8575961,28.6542621 C19.7421017,31.4843863 22.6246697,34.3164128 25.5091753,37.1484394 C24.2199964,37.4832603 22.9456727,37.8700798 21.693309,38.3190442 C18.8714538,39.3311164 16.1645655,40.6520101 13.6591922,42.2829936 C11.1415471,43.9190501 8.8286464,45.867733 6.8800227,48.1239691 C5.02892706,50.2736713 3.51175203,52.6998544 2.36595871,55.2858383 C1.21758186,57.8819684 0.444462015,60.6378993 0.145419001,63.4458289 C-0.14651932,66.1662485 0.00397100917,68.9335937 0.571054738,71.6229409 C1.13749259,74.2996055 2.11277326,76.8957356 3.52854494,79.2337745 C4.64010655,81.0746552 6.019063,82.7538326 7.55884388,84.282087 C11.9734422,88.6163686 16.3880404,92.9506501 20.8026387,97.2874682 C22.7144472,99.1619578 24.8839623,100.785966 27.2046136,102.14681 C28.5519218,102.93757 29.9534841,103.642089 31.4002581,104.236904 C33.3049619,105.020055 35.2942761,105.614235 37.3158844,106.034664 C39.3051986,106.448117 41.3268069,106.696062 43.3555199,106.839375 C44.5129391,106.921178 45.6755253,106.968738 46.8361739,106.990298 C48.3126584,107.013761 49.7910806,106.997274 51.2649816,106.909129 C54.5292653,106.710647 57.7786939,106.168465 60.9092802,105.244537 C64.2730297,104.250855 67.4959771,102.815817 70.5167637,101.053569 C72.0442728,102.550751 73.571782,104.053006 75.0973535,105.550188 C75.3744365,105.820327 75.6515196,105.932569 76.0435695,105.932569 L100.707191,105.932569 C101.444141,105.932569 102.042227,105.347266 102.042227,104.623723 L102.042227,53.8387527 C102.042227,41.1580462 98.6177647,31.2478556 91.644185,24.4036857 C87.2392749,20.0789161 82.8343648,15.7541465 78.4294548,11.4293769 C77.9915473,10.9994364 77.5439516,10.584081 77.0840842,10.1801399 C75.1070417,8.44896379 72.9103996,6.95622072 70.5852271,5.70698375 C68.1308784,4.39179721 65.533144,3.34104307 62.8650086,2.52618545 C59.9559595,1.64030522 56.9642376,1.03597891 53.9453887,0.635208465 C50.599078,0.193219546 47.2204732,-0.00272676091 43.844452,-0.000214538449 C36.535014,0.00932171752 29.2333266,0.945298252 22.1867622,2.86100632 C17.4556821,4.1457546 12.8395689,5.87439419 8.5463963,8.20799422 C8.52701986,8.21750618 8.50764342,8.22701813 8.49020463,8.23653009 C7.87532569,8.57071683 7.62924494,9.31074706 7.92376678,9.93663381 C10.8134395,16.0521878 13.7005286,22.1658394 16.5902013,28.279491 C16.6580188,28.420268 16.7432751,28.542021 16.8575961,28.6542621 M56.9810305,67.6799178 C55.9082218,67.7756715 54.8431636,67.9120096 53.7826266,68.0933709 C52.5005524,68.3153165 51.2288122,68.60448 49.9958249,69.0103235 C48.777047,69.4136305 47.5950843,69.9298127 46.4932109,70.5791622 C45.4882197,71.1784155 44.5497543,71.890544 43.7469239,72.7333033 C43.3161211,73.1848042 42.9247171,73.6743529 42.6011306,74.2063884 C44.1874149,74.1423412 45.7659487,73.9463949 47.3076672,73.5881112 C48.983729,73.1968527 50.6158709,72.6115503 52.1259412,71.7947903 C53.5662564,71.0160781 54.8941882,70.0274687 56.0109169,68.8384742 C56.3538799,68.4706785 56.679404,68.0838589 56.9810305,67.6799178 M52.8222012,36.2270479 C53.0553644,36.2219748 53.291111,36.2219748 53.52492,36.2219748 C55.7771079,36.2219748 57.7786939,36.3773368 59.6226848,36.699475 C59.6569165,36.991175 59.6833976,37.277802 59.7053576,37.5688679 C57.4337933,37.0127355 55.1376855,36.5663076 52.8222012,36.2270479" id="Fill-1" fill="#FFED00" mask="url(#mask-2)"></path>
                </g>
                <path d="M61.3911411,53.1176829 C61.3717647,53.1011955 61.3549718,53.0815375 61.3349494,53.0606112 C59.1363697,52.6091103 56.9132465,52.2863379 54.6778515,52.0720018 C52.4644165,51.8614705 50.2412932,51.751766 48.01817,51.7612779 C45.8021515,51.7707899 43.5867788,51.897616 41.3927202,52.2007303 C39.5196646,52.4588214 37.6614643,52.8431044 35.8710815,53.4379188 C34.1272022,54.0130751 32.4511404,54.7867143 30.9313818,55.8089325 C29.4303538,56.8191023 28.085629,58.0702417 27.1174531,59.5775698 C26.6214163,60.3512089 26.2248452,61.1914317 25.9645551,62.0684341 C25.6990979,62.9492413 25.5725051,63.871267 25.5628169,64.795195 C25.546024,66.6462218 26.008475,68.5111994 26.9223969,70.1136471 C27.8369648,71.7256067 29.2068789,73.0769386 30.7705574,74.1181808 C32.3684676,75.18352 34.1711221,75.9260867 36.0390106,76.3801241 C38.0192825,76.8620632 40.0764143,77.0199617 42.1199825,76.9768409 C44.0899203,76.93372 46.0508158,76.7067013 47.9645619,76.2602735 C49.8763703,75.8138456 51.7423212,75.149911 53.4616571,74.216471 C55.1835765,73.2849334 56.7627561,72.0813538 58.0952091,70.662804 C58.8470149,69.8631655 59.520669,68.9956751 60.0896904,68.0647716 C60.9267525,66.6963181 61.5345267,65.1915266 61.9556413,63.6467848 C62.794641,60.58013 62.9063785,57.3492354 62.4368228,54.2115579 C62.3373571,53.5571353 62.0525235,53.2559234 61.3911411,53.1176829 M56.981064,67.6804886 C55.9089011,67.7756081 54.8431971,67.9119462 53.7826601,68.0933075 C52.5012317,68.3152531 51.2288457,68.6044166 49.9958584,69.0102601 C48.7770805,69.4135671 47.5951178,69.9297492 46.4932444,70.5790988 C45.4888991,71.1783521 44.5497878,71.8904806 43.7469574,72.7332399 C43.3168005,73.1847408 42.9247505,73.6742895 42.6018099,74.2069591 C44.1874484,74.1422778 45.7659821,73.9463315 47.3077006,73.5880478 C48.9837625,73.1967893 50.6159044,72.6114869 52.1266206,71.7947269 C53.5662899,71.0160147 54.8942217,70.0274053 56.0109504,68.8384107 C56.3539133,68.4706151 56.6794374,68.0837955 56.981064,67.6804886 M39.4906,74.1517897 C39.9918038,72.9266497 40.7552355,71.8232627 41.6698033,70.8587503 C42.6528345,69.8200447 43.8076702,68.9411399 45.0458245,68.212524 C47.5608861,66.7343659 50.4066388,65.8820946 53.2963115,65.3754244 C55.0479414,65.0697735 56.8157184,64.8909487 58.5912459,64.8002681 C58.7959903,64.2986709 58.9755453,63.7824887 59.129265,63.2599652 C59.3307799,62.5789091 59.4890208,61.8845363 59.6104465,61.1844563 C57.9518235,61.0627033 56.2880334,60.9961196 54.6268269,61.0056315 C52.5496728,61.0151435 50.4751023,61.13436 48.4121576,61.4159139 C46.7070311,61.6480057 45.0141764,61.9866313 43.389785,62.5269104 C41.8913406,63.0234346 40.4510254,63.6873692 39.1405324,64.5707129 C37.9508191,65.3709855 36.8683222,66.3450098 36.1094117,67.5390775 C35.4945328,68.5067605 35.0902111,69.6215618 34.9907454,70.7585577 C34.9177608,71.5918051 35.0056007,72.4421741 35.2096991,73.2608365 C35.7180077,73.4421978 36.2360044,73.5975597 36.7617518,73.7243858 C37.6588808,73.939356 38.5708651,74.0750599 39.4906,74.1517897 M32.203122,71.7687275 C32.1889126,71.3406895 32.2011843,70.9139197 32.2321866,70.4909547 C32.2883783,69.7864358 32.409804,69.0888923 32.6145483,68.4179823 C32.8670879,67.5891738 33.2513872,66.7990472 33.7235264,66.0634559 C34.6942859,64.556762 36.0390106,63.307525 37.5374551,62.2948187 C39.0578596,61.2726004 40.735859,60.4989613 42.4771548,59.923805 C44.2675376,59.3340637 46.125738,58.94661 47.9987936,58.689153 C50.1928521,58.3835021 52.4088707,58.2592126 54.6242433,58.2497006 C56.3778109,58.2376521 58.133962,58.30487 59.8830084,58.436135 C59.9120731,57.4805004 59.8733202,56.5229634 59.7757921,55.5698654 C57.4971231,55.140559 55.1932647,54.858371 52.880364,54.6915947 C50.4311823,54.5121358 47.9723124,54.4595029 45.5205473,54.586329 C44.2772259,54.6510103 43.0345504,54.7607149 41.8035007,54.9300277 C40.7384425,55.0733412 39.6824267,55.2623121 38.6393285,55.5153301 C36.7636894,55.966831 34.9300326,56.6206195 33.2810977,57.6047899 C32.5221873,58.0562908 31.8046132,58.5769119 31.147752,59.1641167 C30.522539,59.7253221 29.9535176,60.3512089 29.5007548,61.0531913 C29.0731815,61.7171259 28.7470114,62.4501807 28.5668106,63.2143078 C28.3820885,64.0069709 28.3530239,64.8383159 28.4331132,65.6500029 C28.5132024,66.4762748 28.7030915,67.2911325 29.026678,68.0552596 C29.1920236,68.4490547 29.3941844,68.8288988 29.624764,69.1890849 C29.8734283,69.578441 30.1550325,69.9462366 30.4689308,70.2899353 C30.9798229,70.8517749 31.5682207,71.3406895 32.203122,71.7687275" id="Fill-4" fill="#1D1D1B"></path>
                <g id="Group-8" transform="translate(0, 0.0001)">
                    <mask id="mask-4" fill="white">
                        <use xlink:href="#path-3"></use>
                    </mask>
                    <g id="Clip-7"></g>
                    <path d="M100.707159,105.932149 L76.0435383,105.932149 C75.6521343,105.932149 75.3744054,105.819908 75.0973223,105.549768 C73.5723967,104.052586 72.0448876,102.550331 70.5173784,101.053149 C67.495946,102.815398 64.2736445,104.251069 60.9092491,105.244117 C57.7793086,106.16868 54.5298801,106.710861 51.2655963,106.90871 C49.7916953,106.997488 48.3126273,107.013976 46.8361428,106.989879 C45.67614,106.968318 44.5135538,106.920758 43.3554887,106.83959 C41.3267758,106.696276 39.3058134,106.447697 37.3158533,106.034878 C35.2948909,105.61445 33.3049308,105.019635 31.4008729,104.236484 C29.953453,103.64167 28.5525366,102.937151 27.2045824,102.147024 C24.884577,100.785546 22.7150619,99.1621724 20.8032535,97.2870486 C16.3886552,92.9502305 11.973411,88.615949 7.55881275,84.2816674 C6.01967775,82.753413 4.64007542,81.0748697 3.52851381,79.2333549 C2.11274213,76.8959501 1.13746145,74.2998201 0.571023605,71.6225213 C0.00393987557,68.9338083 -0.146550454,66.1658289 0.145387867,63.4460434 C0.444430882,60.6374797 1.21819661,57.8815488 2.36592757,55.2860529 C3.51172089,52.6994348 5.02954181,50.2732517 6.88063744,48.1241836 C8.82861527,45.8673134 11.141516,43.9186305 13.6591611,42.2832081 C16.1645344,40.6522246 18.8714227,39.3313309 21.6932778,38.3186246 C22.9456415,37.8696602 24.2206111,37.4828407 25.5097901,37.1486539 C22.6246386,34.3166274 19.7427165,31.4839667 16.857565,28.6538425 C16.743244,28.5416014 16.6586335,28.4204825 16.5901701,28.2790714 C13.7004975,22.1660539 10.8134083,16.0524023 7.92373565,9.93684835 C7.62985968,9.3109616 7.87529456,8.57029724 8.49081938,8.2361105 C8.50761229,8.22659854 8.52698873,8.21708658 8.54636516,8.20757463 C12.8395378,5.87460873 17.4562969,4.14533501 22.1867311,2.86058673 C29.2332954,0.94551279 36.5349828,0.00953625613 43.8444208,-4.27284239e-13 C47.2204421,-0.00251222229 50.5990469,0.193434085 53.9460035,0.634788873 C56.9642065,1.03619344 59.9559284,1.64051976 62.8649775,2.52639999 C65.5331129,3.34062347 68.1308473,4.39137762 70.585196,5.70719829 C72.9103684,6.95643526 75.1070105,8.4485442 77.0846989,10.1803544 C77.5439205,10.5836614 77.9915162,10.9990168 78.4294236,11.4289573 C82.8343337,15.7537269 87.2392438,20.0784965 91.6441538,24.4032661 C98.6177336,31.247436 102.042196,41.1582607 102.042196,53.8389672 L102.042196,104.623304 C102.042196,105.346847 101.44411,105.932149 100.707159,105.932149 L100.707159,105.932149 Z M68.464122,99.0353463 C65.8276348,100.523016 63.0354902,101.750693 60.1309622,102.617549 C57.2122249,103.484405 54.1765831,103.986003 51.1318989,104.164827 C49.7232319,104.24346 48.3152108,104.255508 46.9039603,104.229509 C45.785294,104.210485 44.6666277,104.164827 43.5473155,104.088732 C41.657467,103.95493 39.770202,103.741862 37.9145852,103.355043 C36.0660731,102.97076 34.2485633,102.419066 32.5046839,101.700597 C31.1670639,101.15144 29.8681967,100.503992 28.6229376,99.7709376 C27.8834036,99.3365582 27.1613084,98.8755454 26.4605273,98.3809237 C27.8491719,98.8609604 29.2701107,99.24778 30.7097799,99.5489919 C32.6971565,99.9618109 34.7207024,100.21039 36.7494154,100.351167 C37.9068346,100.434872 39.0674832,100.479895 40.2274859,100.503992 C41.7065539,100.528089 43.1830385,100.510968 44.659523,100.422824 C47.9231609,100.222438 51.1732353,99.6802569 54.3031758,98.7582313 C57.6649876,97.7626465 60.8898727,96.3295117 63.9113051,94.5672632 C65.4284801,96.0549332 66.9463011,97.5451397 68.464122,99.0353463 L68.464122,99.0353463 Z M97.2432983,103.176218 L93.4493919,99.4462628 L72.8574062,99.4462628 L76.6538961,103.176218 L97.2432983,103.176218 Z M92.5955369,29.7432786 C96.9952799,35.7205922 99.2306749,43.6992214 99.2306749,53.8389672 L99.2306749,101.222462 C97.9660394,99.9808348 96.7014039,98.7392074 95.4361226,97.4950434 L95.4361226,47.3505445 C95.4361226,40.7092964 94.4950736,34.8252 92.5955369,29.7432786 L92.5955369,29.7432786 Z M61.8554651,92.5494601 C61.7217677,92.6255558 61.5880703,92.6972125 61.4517893,92.7739423 C58.9347902,94.1588832 56.2808641,95.3072934 53.5223054,96.131663 C50.6061516,96.9959828 47.5705097,97.5001165 44.5251797,97.6764047 C43.1171586,97.7575734 41.7084916,97.7696219 40.297887,97.7436226 C39.1792206,97.7245987 38.0579708,97.6764047 36.9412421,97.6022115 C35.0488101,97.4690441 33.1615451,97.2540739 31.3085118,96.8672543 C29.4593539,96.4848736 27.6424899,95.9306436 25.8986106,95.2147104 C24.558407,94.6649193 23.2621234,94.0130332 22.0142808,93.2825149 C21.2676421,92.8430625 20.5377963,92.3776108 19.8299104,91.8785501 C21.2263057,92.3655623 22.6537032,92.7644303 24.1011231,93.0650082 C26.7621538,93.6236771 29.4838973,93.8697197 32.2082244,93.9705464 C34.375156,94.0536175 36.5427334,94.0517151 38.7051438,93.8887436 C41.0839244,93.7124553 43.4549545,93.3471962 45.7756058,92.7809177 C48.3881954,92.1385436 50.9323216,91.2431514 53.3692315,90.123277 C56.2149842,88.8144318 58.9147678,87.1973992 61.4517893,85.3755424 L61.4517893,91.6084105 C61.4517893,91.9952301 61.5661103,92.2653697 61.8438393,92.5374116 C61.8483604,92.5399481 61.850944,92.5469236 61.8554651,92.5494601 L61.8554651,92.5494601 Z M90.637225,96.6877954 L86.840735,92.9603766 L66.250687,92.9603766 L70.0478228,96.6877954 L90.637225,96.6877954 Z M85.981713,23.2428074 C86.9621607,25.8674733 87.6480866,28.5923319 88.1002035,31.3527017 C88.6162626,34.4929156 88.8274657,37.6813235 88.8274657,40.8646583 L88.8274657,91.0091573 C90.0946847,92.2533212 91.3599661,93.4949486 92.6246015,94.7346736 L92.6246015,47.3505445 C92.6246015,37.2057257 90.386623,29.2226575 85.981713,23.2428074 L85.981713,23.2428074 Z M64.2639563,82.4262017 L64.2639563,90.2019092 L86.0185282,90.2019092 L86.0185282,40.8646583 C86.0185282,37.8341489 85.8215344,34.7985665 85.3371235,31.8061049 C84.9095501,29.1605127 84.2572101,26.5478953 83.3038894,24.0405435 C82.435825,21.7526009 81.3190963,19.5509 79.9278681,17.5305604 C78.5902481,15.5869506 76.9994426,13.8075806 75.2161645,12.2431808 C73.3921958,10.6458062 71.3660664,9.27037725 69.2204489,8.12133289 C66.9295082,6.88668091 64.5022864,5.90758351 62.0091849,5.15106589 C59.2532096,4.31274544 56.4171451,3.74646696 53.5565371,3.36915934 C50.3387567,2.94175543 47.0912658,2.75532108 43.8444208,2.75783208 C36.7881683,2.76483303 29.7370828,3.67037131 22.9340157,5.51886155 C18.8378369,6.63366287 14.8294979,8.09089463 11.0588432,10.0154805 C13.5377354,15.2597393 16.0159817,20.5059004 18.4974574,25.7526957 C20.783877,24.5491161 23.1891388,23.5674822 25.6602804,22.7843311 C30.3836099,21.2801737 35.3388108,20.5059004 40.3101587,20.4849741 C43.5331061,20.4729257 46.7605746,20.77604 49.8472411,21.6879196 C52.420432,22.4501444 54.8941571,23.629627 56.8938054,25.3684127 C58.7713822,26.9993962 60.2310738,29.1173919 61.1650181,31.4148465 C62.1887398,33.9342467 62.5807898,36.6660807 62.5807898,39.3788907 L62.5807898,39.4695713 C62.5807898,40.3389642 61.736623,40.9667533 60.882768,40.7333933 C60.8537033,40.7232472 60.8246387,40.7162718 60.7949281,40.7092964 C54.0041328,38.8417822 46.9259202,38.0535581 39.8722512,38.1493118 C36.936721,38.1924326 34.0031284,38.3858424 31.1037675,38.8252948 C28.2315336,39.2571377 25.390302,39.9331207 22.6562867,40.9071451 C20.044343,41.8412192 17.5292815,43.0492377 15.2112137,44.5584682 C12.9125224,46.0512112 10.8088872,47.8445321 9.02560905,49.9079926 C7.34502606,51.8471635 5.95121434,54.032377 4.91780435,56.3704159 C3.88374849,58.7078207 3.21009435,61.2012216 2.93753247,63.7326704 C2.67465881,66.1728043 2.78187509,68.6566933 3.2876001,71.0594135 C3.78880395,73.4374027 4.68141182,75.7418327 5.94410965,77.8268536 C7.29400144,80.0596269 9.06694544,82.0393821 11.0711149,83.7445589 C13.0171551,85.3996394 15.176982,86.7890192 17.4801945,87.9069911 C19.7717811,89.0217924 22.2041699,89.8626494 24.699855,90.3832705 C27.1974778,90.9089646 29.7609804,91.1188618 32.3199619,91.2146155 C34.5482522,91.2957842 36.773313,91.2957842 38.9893316,91.1144229 C41.3952392,90.9210131 43.7908127,90.5100966 46.1185687,89.8746979 C48.7673277,89.1511551 51.3263091,88.1340098 53.7561144,86.8803339 C56.6748517,85.3755424 59.4114505,83.5346617 61.9723696,81.4972006 C62.0111225,81.4661282 62.0479377,81.4375923 62.0841071,81.4090565 C62.959922,80.7096106 64.2639563,81.3228147 64.2639563,82.4262017 L64.2639563,82.4262017 Z M52.8221701,36.2266283 C53.0553332,36.2221893 53.2917258,36.2221893 53.5248889,36.2221893 C55.7770768,36.2221893 57.7793086,36.3769172 59.6226537,36.6996896 C59.6568854,36.9907554 59.6833665,37.2773824 59.7053265,37.5690824 C57.4337622,37.0123159 55.1376543,36.565888 52.8221701,36.2266283 L52.8221701,36.2266283 Z M46.9259202,29.7337667 C46.3375224,29.7337667 45.7491246,29.7458151 45.1600809,29.769278 C43.4213686,29.8383982 41.684594,30.0013697 39.9646122,30.2683386 C38.2381717,30.5384782 36.5252946,30.9202247 34.8401905,31.3888471 C33.5335727,31.7541062 32.2424561,32.1694617 30.9700701,32.6444254 C29.540089,33.182168 28.1365891,33.7934698 26.7770091,34.4903791 C27.4358079,35.1352898 28.0952527,35.782737 28.7521139,36.4270135 C29.3863693,36.307797 30.0212705,36.2031654 30.6587553,36.1074117 C33.6943972,35.6463989 36.7591036,35.4434772 39.8309148,35.3959174 L39.9213382,35.3959174 L39.982051,35.3933809 L40.0718285,35.3933809 C44.4521951,34.115608 49.0011367,33.4611854 53.5248889,33.4611854 C55.4754502,33.4611854 57.3362341,33.5810361 59.0536323,33.8194691 C58.854055,33.1269987 58.6060366,32.4535521 58.3044101,31.7991295 C57.2244966,31.2975323 56.0935586,30.9062738 54.9406606,30.6126714 C53.4570714,30.2328273 51.9366669,30.0083451 50.4117413,29.8745436 C49.265948,29.7768875 48.1156335,29.7312301 46.965319,29.7337667 L46.9259202,29.7337667 Z M55.58525,27.9448847 C53.9750681,27.5415777 52.3306545,27.2860231 50.6765526,27.1376366 C48.8138311,26.9683238 46.938192,26.9347149 45.0677199,27.0114447 C43.2121031,27.0850038 41.3610075,27.2669992 39.5267048,27.5529921 C36.2650045,28.0641012 33.0620794,28.9093971 29.975413,30.0654169 C28.1656537,30.7483754 26.3972309,31.534063 24.7017926,32.4535521 C23.1917223,30.9684186 21.6810061,29.4851875 20.1709357,28.0044929 C22.2041699,26.9562753 24.3420368,26.0963944 26.5289907,25.4013875 C30.9752371,23.9904472 35.6301032,23.2592948 40.3101587,23.2402709 C43.2534395,23.2282224 46.203825,23.5008985 49.0205131,24.329707 C51.2094046,24.9739835 53.3182069,25.958154 55.0285004,27.431239 C55.2177436,27.5961129 55.4050492,27.7679623 55.58525,27.9448847 L55.58525,27.9448847 Z" id="Fill-6" fill="#1D1D1B" mask="url(#mask-4)"></path>
                </g>
            </g>
        </g>
    </g>
</svg>